HIERARCHY
ROOT mixamorig:Hips
{
	OFFSET -0.000008 104.274872 1.554316
	CHANNELS 6 Xposition Yposition Zposition Xrotation Yrotation Zrotation
	JOINT mixamorig:Spine
	{
		OFFSET -0.000005 10.181595 0.131519
		CHANNELS 6 Xposition Yposition Zposition Xrotation Yrotation Zrotation
		JOINT mixamorig:Spine1
		{
			OFFSET -0.000000 9.893959 -1.470707
			CHANNELS 6 Xposition Yposition Zposition Xrotation Yrotation Zrotation
			JOINT mixamorig:Spine2
			{
				OFFSET -0.000000 9.220757 -1.370641
				CHANNELS 6 Xposition Yposition Zposition Xrotation Yrotation Zrotation
				JOINT mixamorig:Neck
				{
					OFFSET 0.000001 16.740417 -2.049036
					CHANNELS 6 Xposition Yposition Zposition Xrotation Yrotation Zrotation
					JOINT mixamorig:Head
					{
						OFFSET 0.000000 9.617874 1.685006
						CHANNELS 6 Xposition Yposition Zposition Xrotation Yrotation Zrotation
						JOINT mixamorig:HeadTop_End
						{
							OFFSET 0.000002 22.037354 7.501101
							CHANNELS 6 Xposition Yposition Zposition Xrotation Yrotation Zrotation
							End Site
							{
								OFFSET 0.000168 2310.654297 -282.823242
							}
						}
					}
				}
				JOINT mixamorig:RightShoulder
				{
					OFFSET -4.569970 11.014908 -2.160885
					CHANNELS 6 Xposition Yposition Zposition Xrotation Yrotation Zrotation
					JOINT mixamorig:RightArm
					{
						OFFSET -10.592851 -0.524811 -2.232101
						CHANNELS 6 Xposition Yposition Zposition Xrotation Yrotation Zrotation
						JOINT mixamorig:RightForeArm
						{
							OFFSET -27.841511 0.000031 -0.000004
							CHANNELS 6 Xposition Yposition Zposition Xrotation Yrotation Zrotation
							JOINT mixamorig:RightHand
							{
								OFFSET -28.328831 -0.000015 0.000015
								CHANNELS 6 Xposition Yposition Zposition Xrotation Yrotation Zrotation
								JOINT mixamorig:RightHandThumb1
								{
									OFFSET -2.464806 -1.573990 2.681852
									CHANNELS 6 Xposition Yposition Zposition Xrotation Yrotation Zrotation
									JOINT mixamorig:RightHandThumb2
									{
										OFFSET -3.215179 -1.872803 1.924282
										CHANNELS 6 Xposition Yposition Zposition Xrotation Yrotation Zrotation
										JOINT mixamorig:RightHandThumb3
										{
											OFFSET -2.654831 -1.527969 1.512609
											CHANNELS 6 Xposition Yposition Zposition Xrotation Yrotation Zrotation
											JOINT mixamorig:RightHandThumb4
											{
												OFFSET -2.018814 -1.152008 1.108052
												CHANNELS 6 Xposition Yposition Zposition Xrotation Yrotation Zrotation
												End Site
												{
													OFFSET -188.809540 -114.533607 132.431396
												}
											}
										}
									}
								}
								JOINT mixamorig:RightHandIndex1
								{
									OFFSET -9.108284 -0.517868 2.259835
									CHANNELS 6 Xposition Yposition Zposition Xrotation Yrotation Zrotation
									JOINT mixamorig:RightHandIndex2
									{
										OFFSET -3.699989 0.000000 0.001215
										CHANNELS 6 Xposition Yposition Zposition Xrotation Yrotation Zrotation
										JOINT mixamorig:RightHandIndex3
										{
											OFFSET -2.850006 0.000031 -0.000522
											CHANNELS 6 Xposition Yposition Zposition Xrotation Yrotation Zrotation
											JOINT mixamorig:RightHandIndex4
											{
												OFFSET -2.772186 -0.000015 -0.000020
												CHANNELS 6 Xposition Yposition Zposition Xrotation Yrotation Zrotation
												End Site
												{
													OFFSET -277.218445 0.000000 -0.050231
												}
											}
										}
									}
								}
								JOINT mixamorig:RightHandMiddle1
								{
									OFFSET -9.532516 -0.000031 -0.000023
									CHANNELS 6 Xposition Yposition Zposition Xrotation Yrotation Zrotation
									JOINT mixamorig:RightHandMiddle2
									{
										OFFSET -3.700005 -0.000015 0.003713
										CHANNELS 6 Xposition Yposition Zposition Xrotation Yrotation Zrotation
										JOINT mixamorig:RightHandMiddle3
										{
											OFFSET -2.949974 0.000015 -0.002054
											CHANNELS 6 Xposition Yposition Zposition Xrotation Yrotation Zrotation
											JOINT mixamorig:RightHandMiddle4
											{
												OFFSET -2.946640 0.000000 -0.000156
												CHANNELS 6 Xposition Yposition Zposition Xrotation Yrotation Zrotation
												End Site
												{
													OFFSET -294.664337 0.000000 -0.113670
												}
											}
										}
									}
								}
								JOINT mixamorig:RightHandRing1
								{
									OFFSET -9.103600 -0.043076 -1.865134
									CHANNELS 6 Xposition Yposition Zposition Xrotation Yrotation Zrotation
									JOINT mixamorig:RightHandRing2
									{
										OFFSET -3.379288 0.000000 -0.001055
										CHANNELS 6 Xposition Yposition Zposition Xrotation Yrotation Zrotation
										JOINT mixamorig:RightHandRing3
										{
											OFFSET -2.889687 -0.000015 0.000379
											CHANNELS 6 Xposition Yposition Zposition Xrotation Yrotation Zrotation
											JOINT mixamorig:RightHandRing4
											{
												OFFSET -2.638809 -0.000015 0.000941
												CHANNELS 6 Xposition Yposition Zposition Xrotation Yrotation Zrotation
												End Site
												{
													OFFSET -263.880371 0.000000 0.516020
												}
											}
										}
									}
								}
								JOINT mixamorig:RightHandPinky1
								{
									OFFSET -8.076683 -0.486710 -3.806280
									CHANNELS 6 Xposition Yposition Zposition Xrotation Yrotation Zrotation
									JOINT mixamorig:RightHandPinky2
									{
										OFFSET -3.600014 -0.000015 -0.003747
										CHANNELS 6 Xposition Yposition Zposition Xrotation Yrotation Zrotation
										JOINT mixamorig:RightHandPinky3
										{
											OFFSET -2.099983 0.000000 -0.005739
											CHANNELS 6 Xposition Yposition Zposition Xrotation Yrotation Zrotation
											JOINT mixamorig:RightHandPinky4
											{
												OFFSET -2.115768 -0.000031 -0.003680
												CHANNELS 6 Xposition Yposition Zposition Xrotation Yrotation Zrotation
												End Site
												{
													OFFSET -211.577087 0.000000 -0.350686
												}
											}
										}
									}
								}
							}
						}
					}
				}
				JOINT mixamorig:LeftShoulder
				{
					OFFSET 4.570447 11.014725 -2.160855
					CHANNELS 6 Xposition Yposition Zposition Xrotation Yrotation Zrotation
					JOINT mixamorig:LeftArm
					{
						OFFSET 10.592371 -0.524597 -2.232119
						CHANNELS 6 Xposition Yposition Zposition Xrotation Yrotation Zrotation
						JOINT mixamorig:LeftForeArm
						{
							OFFSET 27.841532 -0.000031 0.000026
							CHANNELS 6 Xposition Yposition Zposition Xrotation Yrotation Zrotation
							JOINT mixamorig:LeftHand
							{
								OFFSET 28.328846 -0.000061 0.000022
								CHANNELS 6 Xposition Yposition Zposition Xrotation Yrotation Zrotation
								JOINT mixamorig:LeftHandThumb1
								{
									OFFSET 2.466141 -1.576172 2.681732
									CHANNELS 6 Xposition Yposition Zposition Xrotation Yrotation Zrotation
									JOINT mixamorig:LeftHandThumb2
									{
										OFFSET 3.217812 -1.872070 1.916482
										CHANNELS 6 Xposition Yposition Zposition Xrotation Yrotation Zrotation
										JOINT mixamorig:LeftHandThumb3
										{
											OFFSET 2.656029 -1.528778 1.514513
											CHANNELS 6 Xposition Yposition Zposition Xrotation Yrotation Zrotation
											JOINT mixamorig:LeftHandThumb4
											{
												OFFSET 2.020889 -1.154053 1.115139
												CHANNELS 6 Xposition Yposition Zposition Xrotation Yrotation Zrotation
												End Site
												{
													OFFSET 190.885437 -115.081749 130.048782
												}
											}
										}
									}
								}
								JOINT mixamorig:LeftHandIndex1
								{
									OFFSET 9.109314 -0.518021 2.259871
									CHANNELS 6 Xposition Yposition Zposition Xrotation Yrotation Zrotation
									JOINT mixamorig:LeftHandIndex2
									{
										OFFSET 3.699989 0.000000 -0.000322
										CHANNELS 6 Xposition Yposition Zposition Xrotation Yrotation Zrotation
										JOINT mixamorig:LeftHandIndex3
										{
											OFFSET 2.850006 0.000000 0.000352
											CHANNELS 6 Xposition Yposition Zposition Xrotation Yrotation Zrotation
											JOINT mixamorig:LeftHandIndex4
											{
												OFFSET 2.774864 -0.000031 -0.000027
												CHANNELS 6 Xposition Yposition Zposition Xrotation Yrotation Zrotation
												End Site
												{
													OFFSET 277.486267 0.000000 -0.009857
												}
											}
										}
									}
								}
								JOINT mixamorig:LeftHandMiddle1
								{
									OFFSET 9.533394 0.000061 0.000044
									CHANNELS 6 Xposition Yposition Zposition Xrotation Yrotation Zrotation
									JOINT mixamorig:LeftHandMiddle2
									{
										OFFSET 3.699989 -0.000015 -0.000231
										CHANNELS 6 Xposition Yposition Zposition Xrotation Yrotation Zrotation
										JOINT mixamorig:LeftHandMiddle3
										{
											OFFSET 2.949997 -0.000015 -0.000059
											CHANNELS 6 Xposition Yposition Zposition Xrotation Yrotation Zrotation
											JOINT mixamorig:LeftHandMiddle4
											{
												OFFSET 2.952896 0.000031 0.000063
												CHANNELS 6 Xposition Yposition Zposition Xrotation Yrotation Zrotation
												End Site
												{
													OFFSET 295.289337 0.000000 0.022810
												}
											}
										}
									}
								}
								JOINT mixamorig:LeftHandRing1
								{
									OFFSET 9.104523 -0.042999 -1.865074
									CHANNELS 6 Xposition Yposition Zposition Xrotation Yrotation Zrotation
									JOINT mixamorig:LeftHandRing2
									{
										OFFSET 3.150009 -0.000031 0.000043
										CHANNELS 6 Xposition Yposition Zposition Xrotation Yrotation Zrotation
										JOINT mixamorig:LeftHandRing3
										{
											OFFSET 2.949982 -0.000015 0.000040
											CHANNELS 6 Xposition Yposition Zposition Xrotation Yrotation Zrotation
											JOINT mixamorig:LeftHandRing4
											{
												OFFSET 2.644348 0.000000 0.000057
												CHANNELS 6 Xposition Yposition Zposition Xrotation Yrotation Zrotation
												End Site
												{
													OFFSET 264.434631 0.000000 0.012105
												}
											}
										}
									}
								}
								JOINT mixamorig:LeftHandPinky1
								{
									OFFSET 8.077789 -0.486847 -3.806259
									CHANNELS 6 Xposition Yposition Zposition Xrotation Yrotation Zrotation
									JOINT mixamorig:LeftHandPinky2
									{
										OFFSET 3.599953 0.000031 0.014727
										CHANNELS 6 Xposition Yposition Zposition Xrotation Yrotation Zrotation
										JOINT mixamorig:LeftHandPinky3
										{
											OFFSET 2.100021 0.000015 0.007705
											CHANNELS 6 Xposition Yposition Zposition Xrotation Yrotation Zrotation
											JOINT mixamorig:LeftHandPinky4
											{
												OFFSET 2.125504 0.000031 0.007517
												CHANNELS 6 Xposition Yposition Zposition Xrotation Yrotation Zrotation
												End Site
												{
													OFFSET 212.550781 0.000000 0.625752
												}
											}
										}
									}
								}
							}
						}
					}
				}
			}
		}
	}
	JOINT mixamorig:RightUpLeg
	{
		OFFSET -8.207787 -6.751648 -1.599560
		CHANNELS 6 Xposition Yposition Zposition Xrotation Yrotation Zrotation
		JOINT mixamorig:RightLeg
		{
			OFFSET -0.000002 -44.370117 0.345942
			CHANNELS 6 Xposition Yposition Zposition Xrotation Yrotation Zrotation
			JOINT mixamorig:RightFoot
			{
				OFFSET 0.000003 -44.423679 -3.043532
				CHANNELS 6 Xposition Yposition Zposition Xrotation Yrotation Zrotation
				JOINT mixamorig:RightToeBase
				{
					OFFSET -0.000002 -8.728671 10.710558
					CHANNELS 6 Xposition Yposition Zposition Xrotation Yrotation Zrotation
					JOINT mixamorig:RightToe_End
					{
						OFFSET -0.000001 -0.000679 9.278119
						CHANNELS 6 Xposition Yposition Zposition Xrotation Yrotation Zrotation
						End Site
						{
							OFFSET 0.000000 -0.067690 927.812134
						}
					}
				}
			}
		}
	}
	JOINT mixamorig:LeftUpLeg
	{
		OFFSET 8.207793 -6.751686 -1.599556
		CHANNELS 6 Xposition Yposition Zposition Xrotation Yrotation Zrotation
		JOINT mixamorig:LeftLeg
		{
			OFFSET -0.000004 -44.370014 0.346954
			CHANNELS 6 Xposition Yposition Zposition Xrotation Yrotation Zrotation
			JOINT mixamorig:LeftFoot
			{
				OFFSET -0.000001 -44.423672 -3.044401
				CHANNELS 6 Xposition Yposition Zposition Xrotation Yrotation Zrotation
				JOINT mixamorig:LeftToeBase
				{
					OFFSET -0.000002 -8.728669 10.710558
					CHANNELS 6 Xposition Yposition Zposition Xrotation Yrotation Zrotation
					JOINT mixamorig:LeftToe_End
					{
						OFFSET -0.000003 -0.000679 9.278133
						CHANNELS 6 Xposition Yposition Zposition Xrotation Yrotation Zrotation
						End Site
						{
							OFFSET 0.000000 -0.068021 927.813477
						}
					}
				}
			}
		}
	}
}
MOTION
Frames: 3
Frame Time: 0.033333
0.000006 104.270477 1.554256 0.000010 0.000003 -0.000113 -0.000005 10.181587 0.131522 0.000001 -0.000003 0.000084 -0.000000 9.893967 -1.470711 0.000001 0.000000 -0.000000 -0.000000 9.220802 -1.370642 0.000000 -0.000000 -0.000000 0.000001 16.740433 -2.049030 0.000000 -0.000000 -0.000000 0.000000 9.617859 1.685014 0.000000 0.000000 0.000000 0.000002 22.037384 7.501101 0.000000 -0.000000 0.000000 -4.569968 11.014880 -2.160881 0.000008 0.000001 -0.000038 -10.592877 -0.524743 -2.231927 75.476090 24.406675 -19.004284 -27.841520 0.000031 0.000539 -54.989208 110.947496 74.215866 -28.328821 0.000020 0.000029 -0.000321 -0.000047 0.000007 -2.464434 -1.573938 2.682377 -29.680000 -151.971777 26.536589 -3.215243 -1.872511 1.924612 149.587645 34.374870 30.237917 -2.654955 -1.527886 1.513085 150.398962 26.501619 -35.037146 -2.018823 -1.152000 1.108061 -0.000001 -0.000001 0.000004 -9.108377 -0.517557 2.260133 101.820704 15.590434 -19.187482 -3.700071 0.000343 0.001510 99.368625 12.492897 -14.672979 -2.850051 0.000371 -0.000256 98.270282 10.009492 -11.558690 -2.772154 -0.000017 -0.000016 -0.000001 0.000000 -0.000001 -9.532574 0.000284 0.000258 100.224898 13.781177 -16.621311 -3.700069 0.000339 0.004001 100.165756 10.466547 -12.384506 -2.950049 0.000344 -0.001771 99.455655 10.361241 -12.208283 -2.946634 0.000003 -0.000158 0.000001 0.000000 0.000001 -9.103688 -0.042751 -1.864846 99.898579 15.096801 -17.864677 -3.379321 0.000322 -0.000774 102.012140 8.813156 -10.895640 -2.889748 0.000357 0.000673 104.142483 6.549112 -8.456278 -2.638806 -0.000001 0.000942 0.000000 0.000000 0.000002 -8.076738 -0.486399 -3.805985 95.012193 16.380358 -17.693906 -3.600020 0.000281 -0.003477 98.951546 7.774909 -8.678945 -2.100034 0.000329 -0.005454 100.052825 4.394515 -4.984000 -2.115767 -0.000041 -0.003678 -0.000001 -0.000001 -0.000000 4.570446 11.014691 -2.160851 -0.000018 0.000010 -0.000021 10.592386 -0.524492 -2.232337 72.962765 -7.799047 5.771204 27.841825 0.000079 -0.000195 99.389026 -70.207016 79.295484 28.328840 -0.000028 0.000021 0.000024 -0.000089 -0.000000 2.466008 -1.576165 2.681916 -35.417857 159.658773 -18.574510 3.217830 -1.871773 1.916377 158.206087 -27.699639 18.918374 2.656116 -1.528677 1.514475 132.615158 -29.880616 51.011941 2.020884 -1.154073 1.115158 0.000001 0.000003 -0.000001 9.109370 -0.517852 2.259727 85.662750 -15.254152 14.141330 3.700056 0.000150 -0.000458 80.378288 -15.022547 12.725667 2.850054 0.000176 0.000208 76.264765 -12.638726 9.935977 2.774884 -0.000029 -0.000027 0.000000 0.000003 -0.000002 9.533453 0.000214 -0.000098 84.970845 -14.094480 12.911113 3.700046 0.000157 -0.000392 84.113534 -14.050183 12.685395 2.950060 0.000151 -0.000183 82.788873 -16.869135 14.895881 2.952876 -0.000028 0.000060 -0.000001 0.000000 -0.000001 9.104568 -0.042852 -1.865213 82.102262 -13.297942 11.594793 3.150058 0.000185 -0.000072 86.523286 -14.014414 13.198074 2.950035 0.000161 -0.000063 87.382981 -15.760636 15.066738 2.644317 0.000044 0.000059 0.000000 0.000002 -0.000000 8.077829 -0.486744 -3.806382 70.640883 -15.517691 11.449011 3.599976 0.000146 0.014582 71.045005 -14.450932 10.717797 2.100039 0.000163 0.007553 75.423819 -13.901621 11.155061 2.125494 -0.000015 0.007508 0.000003 0.000000 0.000001 -8.207786 -6.751667 -1.599560 -0.077001 -0.000003 0.000080 -0.000002 -44.370110 0.345938 0.153719 -0.000000 -0.000000 0.000000 -44.423679 -3.043532 -0.076700 0.000000 -0.000002 -0.000006 -8.728667 10.710559 -0.000009 -0.000000 -0.000000 -0.000001 -0.000679 9.278123 0.000000 -0.000000 -0.000000 8.207792 -6.751710 -1.599556 -0.074518 -0.000003 0.000081 -0.000002 -44.370014 0.346960 0.148822 0.000002 0.000000 -0.000001 -44.423664 -3.044403 -0.074314 0.000000 -0.000002 -0.000004 -8.728671 10.710558 0.000007 -0.000000 -0.000000 0.000000 -0.000680 9.278137 -0.000000 0.000000 -0.000001 
0.000006 104.270477 1.554256 0.000010 0.000003 -0.000113 -0.000005 10.181587 0.131522 0.000001 -0.000003 0.000084 -0.000000 9.893967 -1.470711 0.000001 0.000000 -0.000000 -0.000000 9.220802 -1.370642 0.000000 -0.000000 -0.000000 0.000001 16.740433 -2.049030 0.000000 -0.000000 -0.000000 0.000000 9.617859 1.685014 0.000000 0.000000 0.000000 0.000002 22.037384 7.501101 0.000000 -0.000000 0.000000 -4.569968 11.014880 -2.160881 0.000008 0.000001 -0.000038 -10.592865 -0.524779 -2.231878 75.916118 34.073833 -26.888800 -27.841520 0.000018 0.000556 -52.612329 106.893376 67.390403 -28.328815 0.000005 0.000024 -0.000323 -0.000046 0.000005 -2.464391 -1.573834 2.682333 -41.511711 -154.703197 3.521314 -3.215274 -1.872566 1.924635 150.899438 32.720762 15.488902 -2.654955 -1.527885 1.513076 146.005430 27.615051 -31.396751 -2.018834 -1.152010 1.108072 -0.000003 -0.000003 0.000002 -9.108370 -0.517557 2.260131 102.682161 15.772898 -19.705179 -3.700062 0.000319 0.001546 100.077332 13.924232 -16.554348 -2.850107 0.000372 -0.000249 99.101079 10.937239 -12.813098 -2.772187 -0.000016 -0.000020 -0.000000 -0.000001 0.000000 -9.532578 0.000276 0.000257 99.902561 15.215129 -18.224920 -3.700077 0.000317 0.004012 100.842409 12.631098 -15.136447 -2.950046 0.000318 -0.001788 103.016437 11.541018 -14.476038 -2.946617 0.000000 -0.000153 0.000001 0.000000 -0.000000 -9.103692 -0.042756 -1.864853 99.775909 16.244664 -19.178251 -3.379340 0.000316 -0.000774 101.502055 9.610168 -11.770201 -2.889755 0.000359 0.000689 107.006750 7.084072 -9.626481 -2.638808 -0.000014 0.000940 -0.000000 -0.000002 -0.000001 -8.076756 -0.486395 -3.805993 93.074291 18.112446 -18.933501 -3.600034 0.000293 -0.003493 96.069158 7.923782 -8.415864 -2.099983 0.000323 -0.005462 99.413117 4.016938 -4.484285 -2.115766 -0.000027 -0.003680 -0.000001 0.000003 -0.000001 4.570446 11.014691 -2.160851 -0.000018 0.000010 -0.000021 10.592402 -0.524475 -2.232350 72.127890 -13.854336 10.112625 27.841820 0.000033 -0.000204 101.766083 -74.372892 86.028446 28.328831 -0.000029 0.000020 0.000021 -0.000089 0.000000 2.466258 -1.576069 2.681838 2.372925 167.878919 -94.314141 3.217869 -1.871877 1.916425 162.478753 -21.216039 44.515222 2.656105 -1.528686 1.514500 135.469494 -28.979051 58.429857 2.020895 -1.154074 1.115143 -0.000001 0.000000 0.000001 9.109374 -0.517861 2.259748 84.553077 -18.114702 16.481750 3.700034 0.000154 -0.000461 83.196171 -11.389591 10.133310 2.850040 0.000187 0.000194 81.437718 -8.311387 7.155874 2.774880 -0.000046 -0.000028 0.000000 0.000002 -0.000000 9.533460 0.000202 -0.000088 83.705935 -17.126040 15.355435 3.700034 0.000176 -0.000383 86.058171 -9.714180 9.068208 2.950049 0.000191 -0.000208 86.205450 -9.129669 8.549094 2.952881 -0.000030 0.000061 0.000001 0.000000 0.000000 9.104589 -0.042861 -1.865212 82.309920 -16.728035 14.647289 3.150055 0.000207 -0.000093 88.509928 -12.299136 11.987478 2.950022 0.000188 -0.000097 89.411691 -10.150546 10.049098 2.644317 0.000016 0.000059 -0.000002 0.000001 0.000000 8.077836 -0.486737 -3.806402 74.758135 -18.700769 14.805335 3.600019 0.000145 0.014584 73.004197 -16.986023 13.010127 2.100019 0.000160 0.007554 73.143587 -12.103305 9.356728 2.125505 0.000000 0.007516 -0.000002 0.000004 -0.000001 -8.207786 -6.751667 -1.599560 -0.077001 -0.000003 0.000080 -0.000002 -44.370110 0.345938 0.153719 -0.000000 -0.000000 0.000000 -44.423679 -3.043532 -0.076700 0.000000 -0.000002 -0.000006 -8.728667 10.710559 -0.000009 -0.000000 -0.000000 -0.000001 -0.000679 9.278123 0.000000 -0.000000 -0.000000 8.207792 -6.751710 -1.599556 -0.074518 -0.000003 0.000081 -0.000002 -44.370014 0.346960 0.148822 0.000002 0.000000 -0.000001 -44.423664 -3.044403 -0.074314 0.000000 -0.000002 -0.000004 -8.728671 10.710558 0.000007 -0.000000 -0.000000 0.000000 -0.000680 9.278137 -0.000000 0.000000 -0.000001 
0.000006 104.270477 1.554256 0.000010 0.000003 -0.000113 -0.000005 10.181587 0.131522 0.000001 -0.000003 0.000084 -0.000000 9.893967 -1.470711 0.000001 0.000000 -0.000000 -0.000000 9.220802 -1.370642 0.000000 -0.000000 -0.000000 0.000001 16.740433 -2.049030 0.000000 -0.000000 -0.000000 0.000000 9.617859 1.685014 0.000000 0.000000 0.000000 0.000002 22.037384 7.501101 0.000000 -0.000000 0.000000 -4.569968 11.014880 -2.160881 0.000008 0.000001 -0.000038 -10.592861 -0.524790 -2.231865 75.571925 39.039285 -30.735762 -27.841520 -0.000002 0.000555 -48.872056 104.240257 60.578170 -28.328810 0.000038 0.000034 -0.000319 -0.000044 0.000009 -2.464465 -1.574009 2.682387 -13.026673 -147.935149 52.436855 -3.215263 -1.872572 1.924639 154.588710 32.538253 9.537985 -2.654955 -1.527874 1.513060 144.003405 27.782558 -33.334841 -2.018838 -1.151983 1.108058 0.000001 -0.000000 0.000003 -9.108369 -0.517560 2.260146 105.269157 15.138153 -19.803275 -3.700040 0.000322 0.001528 102.179029 11.598633 -14.314338 -2.850073 0.000383 -0.000235 98.826629 7.630599 -8.901164 -2.772167 0.000001 -0.000014 0.000000 0.000002 -0.000002 -9.532591 0.000288 0.000259 101.860155 12.638919 -15.705373 -3.700083 0.000340 0.004000 102.031845 9.269125 -11.326773 -2.950052 0.000353 -0.001778 99.381923 8.725013 -10.269088 -2.946632 0.000001 -0.000157 0.000001 0.000003 -0.000000 -9.103691 -0.042733 -1.864837 101.109920 13.985262 -16.906229 -3.379342 0.000326 -0.000772 103.434793 10.612609 -13.445346 -2.889768 0.000347 0.000665 102.693991 7.951554 -9.990625 -2.638816 -0.000015 0.000941 -0.000000 -0.000003 -0.000000 -8.076748 -0.486383 -3.806007 92.350011 16.181123 -16.693947 -3.600031 0.000277 -0.003498 93.585695 10.927155 -11.239281 -2.100010 0.000322 -0.005471 94.361399 6.659227 -6.945105 -2.115756 -0.000053 -0.003677 -0.000000 -0.000000 -0.000002 4.570446 11.014691 -2.160851 -0.000018 0.000010 -0.000021 10.592427 -0.524481 -2.232384 71.040681 -22.988663 16.518456 27.841825 0.000060 -0.000195 103.865765 -75.369915 89.211594 28.328838 -0.000027 0.000020 0.000023 -0.000089 0.000000 2.466277 -1.576012 2.681820 16.563854 174.712742 -117.073185 3.217890 -1.871886 1.916434 166.425031 -18.544490 49.457707 2.656108 -1.528689 1.514488 143.131559 -26.197247 56.839120 2.020887 -1.154088 1.115139 0.000001 0.000004 0.000004 9.109387 -0.517865 2.259728 84.895707 -18.506565 16.939535 3.700049 0.000149 -0.000471 82.918394 -14.591989 12.921926 2.850047 0.000171 0.000212 81.137265 -11.506193 9.858807 2.774894 -0.000015 -0.000026 0.000000 -0.000000 0.000000 9.533474 0.000192 -0.000096 83.036078 -17.751790 15.734546 3.700040 0.000174 -0.000378 86.517077 -12.579940 11.840459 2.950045 0.000174 -0.000201 86.052529 -10.675045 9.970186 2.952851 -0.000015 0.000062 -0.000000 -0.000000 -0.000000 9.104596 -0.042866 -1.865241 82.963036 -17.585280 15.576392 3.150068 0.000179 -0.000101 86.770662 -14.726702 13.929141 2.950031 0.000187 -0.000072 86.775525 -10.740148 10.156916 2.644333 0.000031 0.000056 0.000004 0.000000 -0.000000 8.077857 -0.486732 -3.806396 78.128198 -19.824814 16.642430 3.600022 0.000164 0.014574 74.684717 -17.999842 14.194578 2.100036 0.000154 0.007556 75.222164 -11.995748 9.630195 2.125497 -0.000016 0.007515 -0.000000 -0.000002 -0.000000 -8.207786 -6.751667 -1.599560 -0.077001 -0.000003 0.000080 -0.000002 -44.370110 0.345938 0.153719 -0.000000 -0.000000 0.000000 -44.423679 -3.043532 -0.076700 0.000000 -0.000002 -0.000006 -8.728667 10.710559 -0.000009 -0.000000 -0.000000 -0.000001 -0.000679 9.278123 0.000000 -0.000000 -0.000000 8.207792 -6.751710 -1.599556 -0.074518 -0.000003 0.000081 -0.000002 -44.370014 0.346960 0.148822 0.000002 0.000000 -0.000001 -44.423664 -3.044403 -0.074314 0.000000 -0.000002 -0.000004 -8.728671 10.710558 0.000007 -0.000000 -0.000000 0.000000 -0.000680 9.278137 -0.000000 0.000000 -0.000001 
